<svg width="1299" height="1243" viewBox="0 0 1299 1243" fill="none" xmlns="http://www.w3.org/2000/svg">
<rect width="1299" height="1243" rx="50" fill="#2D79C7"/>
<path d="M614.95 680.95V892.15L777.75 680.95H860.8L727.7 852.55L862.45 1083H781.05L681.5 911.95L614.95 997.2V1083H544.55V680.95H614.95ZM919.663 793.15C919.663 722.75 977.963 673.8 1062.66 673.8C1144.06 673.8 1195.76 718.9 1197.96 791.5H1127.56C1125.91 756.85 1101.16 736.5 1061.56 736.5C1018.11 736.5 990.063 757.4 990.063 790.95C990.063 819.55 1005.46 835.5 1039.01 843.2L1102.26 856.95C1171.01 871.8 1204.56 907 1204.56 966.95C1204.56 1041.75 1146.26 1090.15 1057.71 1090.15C971.913 1090.15 915.813 1044.5 914.163 972.45H984.563C985.113 1006.55 1012.61 1026.9 1057.71 1026.9C1104.46 1026.9 1134.16 1006.55 1134.16 973C1134.16 946.05 1120.41 930.1 1087.41 922.95L1023.61 908.65C955.413 893.8 919.663 854.75 919.663 793.15Z" fill="white"/>
</svg>
